PathFileType	3	(X/Y/Z)	D:\minhoCalibration\240510\subject2_KPNP\preferred\preferred06.trc
DataRate	CameraRate	NumFrames	NumMarkers	Units	OrigDataRate	OrigDataStartFrame	OrigNumFrames
200.0	200.0	30	10	mm	200.0	297	188	
Frame#	Time	Left_Ankle_Outer1			Left_Ankle_Inner1			Left_Knee_Outer1			Left_Knee_Inner1			Left_Wrist1			Right_Wrist1			Right_Knee_Inner1			Right_Knee_Outer1			Right_Ankle_Inner1			Right_Ankle_Outer1			
		X1	Y1	Z1	X2	Y2	Z2	X3	Y3	Z3	X4	Y4	Z4	X5	Y5	Z5	X6	Y6	Z6	X7	Y7	Z7	X8	Y8	Z8	X9	Y9	Z9	X10	Y10	Z10	
297	1.475	-503.44592	109.85201	-793.86438	-509.00842	123.12411	-738.44897	-282.90503	508.92358	-851.70673	-296.98181	493.10498	-753.38574	-353.09671	967.44128	-923.08881	-492.22522	1127.1614	-640.90857	-547.56055	812.83881	-246.88628	-589.16339	910.17865	-248.6963	-779.71906	740.32196	-591.34918	-833.32501	821.79211	-574.53522
298	1.48	-502.91843	111.57994	-791.27118	-507.05319	124.71741	-736.13477	-284.74939	509.31299	-856.69678	-292.23999	493.44977	-759.03625	-361.55652	964.96454	-924.99622	-482.49731	1131.4252	-638.36377	-523.64221	826.98657	-236.43095	-560.60767	925.50641	-238.54482	-784.85565	756.44135	-560.81543	-832.69147	840.58972	-541.69617
299	1.485	-502.46692	113.28929	-788.99878	-504.59366	126.98132	-733.04187	-286.79385	510.25717	-861.42499	-288.19104	494.10779	-764.43976	-370.09308	962.37653	-926.35046	-475.93362	1134.7626	-637.16028	-499.56921	840.72919	-227.70168	-532.60382	940.47314	-228.73183	-789.26611	773.50275	-527.98187	-831.7666	859.30859	-505.98889
300	1.49	-501.84213	114.69798	-786.82654	-502.79938	128.67903	-730.47626	-289.82819	511.16849	-864.87683	-285.15097	495.05984	-769.27777	-378.86676	959.58478	-927.06281	-468.87781	1137.8511	-635.98096	-475.61356	853.88855	-220.66162	-503.67392	954.61566	-222.24063	-792.04907	789.4549	-494.28513	-829.30164	877.21301	-471.86716
301	1.495	-501.24323	115.67885	-784.52246	-501.92267	130.53038	-726.91254	-292.89365	512.45367	-867.73627	-283.4556	496.46198	-773.00311	-387.59006	956.81073	-927.15289	-461.84473	1140.6088	-634.86298	-451.9787	866.43231	-215.30417	-476.05243	967.4231	-217.41382	-795.51501	806.45831	-455.7626	-826.44781	895.84827	-431.82648
302	1.5	-501.26505	116.90541	-782.86267	-500.17834	130.89067	-726.84235	-296.43375	513.68774	-869.685	-283.17093	498.08658	-775.36975	-396.61807	953.61993	-926.4093	-455.24506	1143.049	-633.99756	-428.85397	878.21722	-211.43951	-448.42349	979.32062	-215.05185	-795.72876	822.46954	-417.04489	-821.54181	913.3161	-393.76584
303	1.505	-501.58585	117.51395	-781.07324	-499.76129	131.50169	-725.37665	-299.85696	515.18842	-870.51019	-284.0661	499.84015	-776.43042	-405.56439	950.42279	-925.07379	-449.07321	1145.1174	-633.32959	-406.23874	889.09424	-209.27898	-422.07001	989.62579	-214.66064	-794.08154	838.65863	-375.39044	-814.72467	930.69672	-352.83371
304	1.51	-502.2294	117.61947	-779.12488	-499.94348	130.62793	-725.51544	-303.84427	515.91187	-870.44	-286.05121	501.4978	-776.29089	-414.32922	947.41187	-923.26147	-443.2926	1146.9141	-632.81085	-384.96518	899.03674	-208.36974	-397.34839	998.66418	-215.97545	-790.05042	855.68915	-331.39557	-805.42914	948.75336	-310.12552
305	1.515	-503.33698	117.46616	-777.23969	-500.6972	131.19601	-722.37585	-306.8197	517.54572	-869.88794	-289.00684	502.94418	-775.0802	-422.77802	944.68164	-920.651	-437.86917	1148.3726	-632.36737	-364.88348	907.75342	-208.59369	-374.2381	1006.0961	-218.86079	-782.72223	872.63416	-285.1308	-793.21613	966.51154	-265.83243
306	1.52	-504.64243	116.97563	-775.3913	-501.63007	130.6158	-720.61768	-309.87378	518.62927	-868.94159	-292.48499	504.00787	-773.13361	-430.3775	942.57147	-918.33972	-433.02704	1149.6576	-632.271	-346.48898	915.26031	-210.0352	-353.25574	1012.0756	-222.98662	-771.66711	889.75018	-237.26253	-777.57349	984.14874	-220.18034
307	1.525	-506.13492	116.18941	-773.323	-502.52594	129.92856	-718.50079	-313.69791	519.51154	-866.48676	-296.80896	504.66907	-770.31116	-437.46411	940.42834	-915.78809	-428.19766	1150.439	-632.41711	-329.85495	921.61823	-212.90588	-334.66861	1016.728	-227.84749	-756.56256	907.33972	-189.13336	-758.37585	1001.9554	-173.80464
308	1.53	-507.89948	115.26443	-771.37128	-504.04288	129.0706	-715.435	-317.22855	520.29028	-863.78101	-301.75668	504.92053	-766.80414	-443.62277	938.95483	-913.15057	-424.36954	1151.6465	-632.35651	-315.75732	926.39478	-215.99881	-318.79419	1020.0667	-233.06772	-737.25067	923.25464	-137.12787	-735.00018	1019.4227	-127.41225
309	1.535	-509.50803	114.13757	-769.03491	-505.30035	127.60464	-713.41473	-320.60547	520.83203	-860.79395	-306.81729	505.0184	-763.1424	-449.36905	937.50079	-909.573	-420.92639	1152.298	-632.4552	-304.22116	930.00385	-219.34834	-305.60101	1022.6364	-238.05797	-712.78479	939.00739	-85.61618	-707.28351	1036.3311	-81.09037
310	1.54	-511.06393	112.85313	-766.33868	-506.89966	125.12191	-712.40192	-324.155	520.72998	-857.47455	-311.91699	504.76349	-759.17017	-453.76886	936.67224	-907.06622	-418.03293	1153.5505	-632.13763	-295.48361	932.69305	-222.88429	-295.32001	1024.1199	-242.57637	-683.86462	954.57544	-38.139294	-674.82184	1052.6932	-35.997952
311	1.545	-512.73376	111.90222	-763.58472	-508.10092	124.43348	-708.81879	-326.77902	520.63971	-854.37579	-316.94348	504.42838	-755.16089	-457.50131	935.94495	-904.38293	-416.1171	1154.4038	-632.34222	-289.69446	934.79102	-226.19092	-287.49841	1024.8154	-246.72705	-650.28149	969.74487	7.4219208	-637.35614	1068.3882	7.2702746
312	1.55	-514.47949	111.27558	-760.80658	-509.39978	122.76131	-706.78485	-329.81512	519.97498	-851.04626	-321.79654	504.04889	-751.10291	-460.41467	935.76508	-901.28802	-414.63232	1155.4757	-632.21954	-286.96985	936.58038	-229.05284	-282.25574	1024.9535	-249.96489	-612.75287	984.06494	50.154648	-595.59766	1083.0249	48.291569
313	1.555	-515.8299	110.54429	-757.66028	-509.94534	122.93919	-702.60919	-332.19412	519.51428	-847.9599	-326.41272	503.72028	-747.1875	-462.62411	935.57275	-899.7179	-413.461	1156.8667	-632.07269	-287.28091	938.41919	-231.39575	-279.72742	1024.9391	-252.48108	-571.3551	997.25409	89.164742	-549.21704	1096.1715	85.492043
314	1.56	-517.16046	110.35435	-754.85553	-511.02347	121.15612	-700.92273	-334.84824	519.11993	-844.69769	-330.69119	503.5777	-743.35437	-464.76465	935.53143	-896.74811	-412.61371	1158.8146	-631.83325	-290.76535	940.71265	-233.19055	-279.93182	1025.7524	-253.74028	-523.96021	1011.6551	125.02081	-498.5368	1106.7878	116.81894
315	1.565	-518.08429	109.94612	-751.97778	-511.13916	121.58624	-697.36554	-338.11218	518.67584	-841.33466	-334.41937	503.80795	-739.83777	-465.66678	936.33807	-895.05133	-412.12527	1161.2065	-631.37115	-296.21161	943.54871	-233.78629	-282.65472	1027.1609	-253.59232	-471.20041	1019.6824	153.48767	-445.52859	1114.4109	141.58081
316	1.57	-519.00482	110.24966	-749.70819	-511.44366	121.15175	-694.99994	-340.91702	519.35059	-838.15295	-337.50711	504.21704	-736.65692	-466.56461	936.7887	-892.9447	-411.91306	1163.776	-630.63977	-303.55289	947.27936	-232.51562	-287.32535	1030.2383	-252.74855	-415.78314	1024.0444	174.46936	-392.61871	1118.1726	159.88251
317	1.575	-519.61963	110.44942	-747.5072	-512.02582	120.46072	-693.5871	-343.60287	520.36505	-835.58087	-340.05624	504.86969	-733.79236	-467.16693	937.18073	-889.6153	-412.0527	1166.3618	-629.40588	-309.2587	952.03546	-229.29691	-290.94504	1037.0621	-251.89438	-359.78519	1023.5596	186.03008	-340.58923	1117.5814	168.74017
318	1.58	-520.04504	110.80611	-745.71533	-511.94757	121.08509	-690.95288	-346.99002	521.40967	-832.40887	-342.14401	505.7782	-731.22003	-466.97589	938.58746	-886.98138	-412.48206	1168.8774	-627.53778	-311.58698	957.13306	-224.74066	-291.8006	1046.4061	-250.86484	-316.93997	1019.4485	181.10258	-306.56973	1112.8279	167.79541
319	1.585	-520.35107	111.22451	-744.16974	-511.87903	122.2249	-687.97809	-349.97699	522.77301	-829.71832	-343.67126	506.74557	-728.84796	-466.80911	939.78619	-883.99982	-413.35895	1171.16	-625.16248	-304.00128	963.177	-221.99791	-286.20328	1052.4796	-249.33084	-307.41791	1012.1535	178.72095	-296.17987	1109.636	168.32664
320	1.59	-520.54907	111.73275	-743.00159	-511.78033	120.75613	-689.20203	-352.41086	524.57776	-827.073	-344.73843	507.87048	-726.62378	-467.00757	940.62317	-880.28448	-414.66797	1173.1322	-622.45758	-286.57697	968.0788	-225.06805	-274.64767	1057.251	-249.05272	-313.34723	1009.8837	181.49361	-299.58154	1108.2588	170.71301
321	1.595	-520.48877	112.29816	-742.00696	-511.55365	121.45823	-687.862	-355.47458	525.89709	-823.67896	-345.47015	508.92825	-724.30048	-467.51834	941.14453	-876.20789	-416.34796	1174.6473	-619.66638	-271.84772	968.94312	-228.86949	-264.81787	1057.8053	-247.78685	-322.62234	1010.0912	182.5827	-306.63895	1108.1292	170.867
322	1.6	-520.38715	112.95235	-741.06689	-511.85208	123.14786	-684.50787	-357.74527	527.50201	-820.4726	-345.93307	510.00012	-722.00421	-468.81491	941.24634	-871.73621	-418.46182	1175.5645	-616.61749	-261.88504	971.78265	-232.32683	-255.54701	1056.8921	-247.04208	-331.90268	1008.1309	180.63805	-310.61264	1104.8651	169.99867
323	1.605	-520.14252	113.7502	-740.24548	-511.0416	122.41398	-685.73633	-359.45389	529.04034	-817.27484	-346.46472	511.24973	-719.53986	-469.45636	941.77905	-869.37811	-420.46036	1176.2924	-613.27338	-258.8013	975.68726	-233.08296	-246.43208	1056.8196	-246.4635	-339.48459	1004.6465	177.4514	-313.72839	1099.6047	171.63167
324	1.61	-519.7088	114.3888	-739.11188	-511.65091	124.17659	-682.3042	-360.80322	530.65295	-813.92444	-347.29706	512.57196	-716.86725	-470.00629	942.13873	-865.77747	-422.62817	1176.708	-609.93597	-261.39551	979.27307	-230.3918	-240.54523	1056.1355	-245.39696	-344.1796	999.20819	174.5036	-315.51974	1093.882	174.78484
325	1.615	-519.42682	115.31542	-738.06659	-510.89066	122.80277	-684.37323	-361.87299	532.38257	-810.58838	-348.52133	513.99951	-714.08606	-471.10468	941.85547	-862.30035	-424.95157	1177.4382	-606.41046	-265.6268	983.57428	-226.32817	-242.90602	1061.0776	-244.44154	-345.15338	993.18549	174.95908	-318.05545	1088.7117	178.98268
326	1.62	-519.48145	116.35342	-736.75732	-510.56384	124.89623	-681.16284	-362.46362	534.28839	-807.66089	-350.17035	515.56512	-711.40741	-472.07025	941.32764	-859.07965	-426.79138	1177.6566	-603.54236	-268.62143	989.02338	-223.17152	-250.12779	1071.8289	-242.29315	-342.80399	987.8374	178.88747	-318.94855	1083.5071	183.43253
